<svg width="21" height="18" viewBox="0 0 21 17" fill="none" xmlns="http://www.w3.org/2000/svg">
<path d="M1 3.33328C1 2.77338 1.22242 2.23641 1.61833 1.8405C2.01424 1.44459 2.55121 1.22217 3.11111 1.22217H17.8889C18.4488 1.22217 18.9858 1.44459 19.3817 1.8405C19.7776 2.23641 20 2.77338 20 3.33328V13.8888C20 14.4487 19.7776 14.9857 19.3817 15.3816C18.9858 15.7775 18.4488 15.9999 17.8889 15.9999H3.11111C2.55121 15.9999 2.01424 15.7775 1.61833 15.3816C1.22242 14.9857 1 14.4487 1 13.8888V3.33328Z" stroke="#CCCCCC" stroke-width="1.6" stroke-linecap="round" stroke-linejoin="round"/>
<path d="M1 3.33325L10.5 9.66659L20 3.33325" stroke="#CCCCCC" stroke-width="1.6" stroke-linecap="round" stroke-linejoin="round"/>
</svg>
