<svg width="22" height="19" viewBox="0 0 22 19" fill="none" xmlns="http://www.w3.org/2000/svg">
<path fill-rule="evenodd" clip-rule="evenodd" d="M0 1.58333C0 1.16341 0.165561 0.760681 0.460261 0.463748C0.754961 0.166815 1.15466 0 1.57143 0H20.4286C20.8453 0 21.245 0.166815 21.5397 0.463748C21.8344 0.760681 22 1.16341 22 1.58333C22 2.00326 21.8344 2.40599 21.5397 2.70292C21.245 2.99985 20.8453 3.16667 20.4286 3.16667H1.57143C1.15466 3.16667 0.754961 2.99985 0.460261 2.70292C0.165561 2.40599 0 2.00326 0 1.58333ZM0 9.5C0 9.08007 0.165561 8.67735 0.460261 8.38041C0.754961 8.08348 1.15466 7.91667 1.57143 7.91667H20.4286C20.8453 7.91667 21.245 8.08348 21.5397 8.38041C21.8344 8.67735 22 9.08007 22 9.5C22 9.91993 21.8344 10.3227 21.5397 10.6196C21.245 10.9165 20.8453 11.0833 20.4286 11.0833H1.57143C1.15466 11.0833 0.754961 10.9165 0.460261 10.6196C0.165561 10.3227 0 9.91993 0 9.5ZM0 17.4167C0 16.9967 0.165561 16.594 0.460261 16.2971C0.754961 16.0001 1.15466 15.8333 1.57143 15.8333H11C11.4168 15.8333 11.8165 16.0001 12.1112 16.2971C12.4059 16.594 12.5714 16.9967 12.5714 17.4167C12.5714 17.8366 12.4059 18.2393 12.1112 18.5363C11.8165 18.8332 11.4168 19 11 19H1.57143C1.15466 19 0.754961 18.8332 0.460261 18.5363C0.165561 18.2393 0 17.8366 0 17.4167Z" fill="#292A29"/>
</svg>
