<svg width="21" height="20" viewBox="0 0 19 20" fill="none" xmlns="http://www.w3.org/2000/svg">
<path d="M6.8485 13.3779C6.8485 13.6185 6.75539 13.8492 6.58966 14.0193C6.42393 14.1893 6.19915 14.2849 5.96478 14.2849C5.7304 14.2849 5.50562 14.1893 5.33989 14.0193C5.17416 13.8492 5.08105 13.6185 5.08105 13.3779C5.08105 13.1374 5.17416 12.9067 5.33989 12.7366C5.50562 12.5665 5.7304 12.4709 5.96478 12.4709C6.19915 12.4709 6.42393 12.5665 6.58966 12.7366C6.75539 12.9067 6.8485 13.1374 6.8485 13.3779ZM10.3834 13.3779C10.3834 13.6185 10.2903 13.8492 10.1245 14.0193C9.95881 14.1893 9.73404 14.2849 9.49966 14.2849C9.26528 14.2849 9.0405 14.1893 8.87477 14.0193C8.70904 13.8492 8.61594 13.6185 8.61594 13.3779C8.61594 13.1374 8.70904 12.9067 8.87477 12.7366C9.0405 12.5665 9.26528 12.4709 9.49966 12.4709C9.73404 12.4709 9.95881 12.5665 10.1245 12.7366C10.2903 12.9067 10.3834 13.1374 10.3834 13.3779ZM13.0345 14.2849C13.2689 14.2849 13.4937 14.1893 13.6594 14.0193C13.8252 13.8492 13.9183 13.6185 13.9183 13.3779C13.9183 13.1374 13.8252 12.9067 13.6594 12.7366C13.4937 12.5665 13.2689 12.4709 13.0345 12.4709C12.8002 12.4709 12.5754 12.5665 12.4097 12.7366C12.2439 12.9067 12.1508 13.1374 12.1508 13.3779C12.1508 13.6185 12.2439 13.8492 12.4097 14.0193C12.5754 14.1893 12.8002 14.2849 13.0345 14.2849Z" fill="#CCCCCC"/>
<path fill-rule="evenodd" clip-rule="evenodd" d="M3.53488 6.12209V7.30388C3.33428 7.3184 3.14605 7.33653 2.96753 7.36193C2.17219 7.47077 1.50233 7.70658 0.970326 8.25167C0.438326 8.79767 0.210326 9.48516 0.103395 10.3014C-1.31685e-08 11.0878 0 12.0882 0 13.328V13.4278C0 14.6676 -1.31685e-08 15.668 0.103395 16.4544C0.209442 17.2707 0.439209 17.9581 0.970326 18.5041C1.50233 19.0501 2.17219 19.2841 2.96753 19.3948C3.73372 19.5 4.70847 19.5 5.91651 19.5H13.0835C14.2915 19.5 15.2663 19.5 16.0325 19.3948C16.8278 19.2841 17.4977 19.0501 18.0297 18.5041C18.5617 17.9581 18.7897 17.2707 18.8975 16.4544C19 15.668 19 14.6676 19 13.4278V13.328C19 12.0882 19 11.0878 18.8975 10.3014C18.7897 9.48516 18.5617 8.79767 18.0297 8.25167C17.4977 7.70567 16.8278 7.47167 16.0325 7.36193C15.844 7.33645 15.6548 7.3171 15.4651 7.30388V6.12209C15.4651 4.49841 14.8367 2.94123 13.718 1.79312C12.5993 0.645004 11.082 0 9.5 0C7.91795 0 6.4007 0.645004 5.28203 1.79312C4.16335 2.94123 3.53488 4.49841 3.53488 6.12209ZM9.5 1.36047C8.26952 1.36047 7.08943 1.86214 6.21935 2.75511C5.34927 3.64809 4.86047 4.85923 4.86047 6.12209V7.25854C5.19009 7.25581 5.5427 7.25581 5.91651 7.25581H13.0835C13.4573 7.25581 13.8099 7.25581 14.1395 7.25854V6.12209C14.1395 3.49186 12.0628 1.36047 9.5 1.36047ZM3.14428 8.7097C2.49563 8.79949 2.15274 8.96365 1.90795 9.21398C1.66316 9.46521 1.50409 9.81712 1.4166 10.4837C1.32735 11.1685 1.32558 12.0764 1.32558 13.3779C1.32558 14.6794 1.32735 15.5873 1.4166 16.273C1.50409 16.9387 1.66405 17.2906 1.90795 17.5418C2.15274 17.7931 2.49563 17.9563 3.14516 18.0461C3.81149 18.1377 4.69698 18.1395 5.96512 18.1395H13.0349C14.303 18.1395 15.1876 18.1377 15.8557 18.0461C16.5044 17.9563 16.8473 17.7922 17.092 17.5418C17.3368 17.2906 17.4959 16.9387 17.5834 16.2721C17.6727 15.5873 17.6744 14.6794 17.6744 13.3779C17.6744 12.0764 17.6727 11.1676 17.5834 10.4828C17.4959 9.81712 17.336 9.46521 17.092 9.21398C16.8473 8.96274 16.5044 8.79949 15.8548 8.7097C15.1876 8.61809 14.303 8.61628 13.0349 8.61628H5.96512C4.69698 8.61628 3.81149 8.61809 3.14428 8.7097Z" fill="#CCCCCC"/>
</svg>
