<svg width="44" height="44" viewBox="0 0 44 44" fill="none" xmlns="http://www.w3.org/2000/svg">
<path d="M22 22H28.6667C32.2029 22 35.5943 20.5952 38.0948 18.0948C40.5952 15.5943 42 12.2029 42 8.66667V6.44444H35.3333C31.7971 6.44444 28.4057 7.8492 25.9052 10.3497C23.4048 12.8502 22 16.2416 22 19.7778H15.3333C11.7971 19.7778 8.40573 18.373 5.90524 15.8725C3.40476 13.372 2 9.98066 2 6.44444V2H8.66667C12.2029 2 15.5943 3.40476 18.0948 5.90524C20.5952 8.40573 22 11.7971 22 15.3333V28.6667M10.8889 28.6667H33.1111V37.5556C33.1111 38.7343 32.6429 39.8648 31.8094 40.6983C30.9759 41.5317 29.8454 42 28.6667 42H15.3333C14.1546 42 13.0241 41.5317 12.1906 40.6983C11.3571 39.8648 10.8889 38.7343 10.8889 37.5556V28.6667Z" stroke="#222222" stroke-width="4" stroke-linecap="round" stroke-linejoin="round"/>
</svg>
